<svg xmlns="http://www.w3.org/2000/svg" width="1280" height="640" viewBox="0 0 1280 640" role="img" aria-labelledby="title desc">
  <title id="title">Adaptive Knowledge Assistant</title>
  <desc id="desc">Portfolio preview with retrieval and routing benchmark results.</desc>
  <defs>
    <linearGradient id="background" x1="0" y1="0" x2="1" y2="1">
      <stop offset="0" stop-color="#071713"/>
      <stop offset="1" stop-color="#102b23"/>
    </linearGradient>
    <linearGradient id="accent" x1="0" y1="0" x2="1" y2="0">
      <stop offset="0" stop-color="#4de0ad"/>
      <stop offset="1" stop-color="#c9f57a"/>
    </linearGradient>
  </defs>
  <rect width="1280" height="640" fill="url(#background)"/>
  <circle cx="1130" cy="50" r="330" fill="#1c614d" opacity=".25"/>
  <circle cx="90" cy="680" r="260" fill="#c9f57a" opacity=".08"/>
  <rect x="72" y="70" width="66" height="66" rx="18" fill="url(#accent)"/>
  <path d="M92 113l13-27h7l13 27h-9l-2-6h-13l-2 6zm12-13h8l-4-10z" fill="#071713"/>
  <text x="160" y="105" fill="#9cb8ae" font-family="Inter,Arial,sans-serif" font-size="25" font-weight="600" letter-spacing="3">PYTHON · RAG · AGENTS</text>
  <text x="72" y="225" fill="#f2fff9" font-family="Inter,Arial,sans-serif" font-size="62" font-weight="750">Adaptive Knowledge</text>
  <text x="72" y="297" fill="#f2fff9" font-family="Inter,Arial,sans-serif" font-size="62" font-weight="750">Assistant</text>
  <text x="76" y="350" fill="#aac6bb" font-family="Inter,Arial,sans-serif" font-size="25">Provider-neutral answers grounded in local documents</text>
  <g transform="translate(72 405)">
    <rect width="344" height="130" rx="18" fill="#112f27" stroke="#285a49"/>
    <text x="24" y="42" fill="#91b1a5" font-family="Inter,Arial,sans-serif" font-size="18">HYBRID RETRIEVAL</text>
    <text x="24" y="91" fill="#c9f57a" font-family="Inter,Arial,sans-serif" font-size="42" font-weight="700">1.000</text>
    <text x="170" y="91" fill="#e8fff6" font-family="Inter,Arial,sans-serif" font-size="21">Hit Rate@3</text>
  </g>
  <g transform="translate(438 405)">
    <rect width="344" height="130" rx="18" fill="#112f27" stroke="#285a49"/>
    <text x="24" y="42" fill="#91b1a5" font-family="Inter,Arial,sans-serif" font-size="18">ROUTING BENCHMARK</text>
    <text x="24" y="91" fill="#4de0ad" font-family="Inter,Arial,sans-serif" font-size="42" font-weight="700">24/24</text>
    <text x="174" y="91" fill="#e8fff6" font-family="Inter,Arial,sans-serif" font-size="21">decisions</text>
  </g>
  <g transform="translate(804 405)">
    <rect width="404" height="130" rx="18" fill="#112f27" stroke="#285a49"/>
    <text x="24" y="42" fill="#91b1a5" font-family="Inter,Arial,sans-serif" font-size="18">ENGINEERING QUALITY</text>
    <text x="24" y="91" fill="#f3c98b" font-family="Inter,Arial,sans-serif" font-size="42" font-weight="700">95%+</text>
    <text x="156" y="91" fill="#e8fff6" font-family="Inter,Arial,sans-serif" font-size="21">coverage gate</text>
  </g>
  <text x="76" y="594" fill="#7b9a8f" font-family="Inter,Arial,sans-serif" font-size="19">sunnatbek-dev/adaptive-knowledge-assistant</text>
</svg>
